PathFileType	4	(X/Y/Z)	C:/Users/beibeiliu/ov580/test_trc/User2\sequence.18_training_dense_left.trc
DataRate	CameraRate	NumFrames	NumMarkers	Units	OrigDataRate	OrigDataStartFrame	OrigNumFrames
120	120	17	19	mm	120	269	429
Frame#	Time	ThumbCMC			ThumbMCP			ThumbIP			ThumbTip			IndexMCP			IndexPIP			IndexTip			MiddleMCP			MiddlePIP			MiddleTip			RingMCP			RingPIP			RingTip			PinkyMCP			PinkyPIP			PinkyTip			BackHand1			BackHand2			BackHand3	
		X0	Y0	Z0	X1	Y1	Z1	X2	Y2	Z2	X3	Y3	Z3	X4	Y4	Z4	X5	Y5	Z5	X6	Y6	Z6	X7	Y7	Z7	X8	Y8	Z8	X9	Y9	Z9	X10	Y10	Z10	X11	Y11	Z11	X12	Y12	Z12	X13	Y13	Z13	X14	Y14	Z14	X15	Y15	Z15	X16	Y16	Z16	X17	Y17	Z17	X18	Y18	Z18	
268	2.23333	-189.495	4.09541	33.6155	-168.606	12.8999	6.38756	-140.7	11.2469	-20.6719	-116.147	-2.07286	-18.9236	-151.023	-33.7072	-33.83	-127.138	-18.3531	-42.8787	-137.687	0.495101	-8.41324	-129.486	-52.4413	-22.7629	-104.416	-27.5521	-28.0191	-120.698	-7.4097	-1.87734	-115.629	-58.6692	-5.32694	-97.1557	-37.1189	-16.1603	-109.007	-16.2752	7.62064	-109.221	-63.2096	18.9168	-90.9982	-42.7967	1.07229	-102.169	-18.478	22.5378	-154.411	-59.6112	43.4918	-173.705	-52.7729	72.2713	-185.915	-40.6535	35.7304	
269	2.24167	-192.423	5.66735	35.0665	-170.746	13.8721	2.73782	-143.976	9.01392	-18.3473	-116.371	-12.0869	-17.2388	-158.138	-35.402	-30.7598	-132.067	-20.4028	-43.2213	-141.045	-0.493293	-13.2352	-138.003	-55.6574	-21.6337	-112.464	-35.9993	-35.4951	-124.464	-12.2018	-4.40862	-123.987	-59.9164	-12.4535	-102.423	-38.0146	-20.5041	-114.369	-18.9076	9.54227	-115.746	-64.0039	16.9012	-94.8382	-46.2931	-2.94184	-100.913	-22.241	15.9817	-156.989	-58.1226	43.2717	-176.651	-53.9888	69.4341	-192.208	-36.4335	38.5807	
270	2.25	-189.156	1.39036	37.3725	-171.086	11.7293	2.27074	-143.415	4.41794	-19.761	-120.058	-15.3936	-15.8954	-162.862	-38.038	-33.0507	-136.505	-23.2987	-43.7666	-142.692	-3.03154	-14.3188	-144.804	-56.5435	-29.1887	-118.623	-38.1084	-39.2895	-132.917	-15.0953	-5.61612	-130.01	-62.8722	-13.5997	-105.787	-46.6447	-24.5679	-120.167	-21.1858	4.25386	-120.239	-65.9837	13.7729	-102.195	-51.276	-8.75148	-104.401	-22.1658	14.0665	-159.416	-60.4049	41.3699	-174.361	-54.0948	70.3419	-193.317	-40.2536	39.0993	
271	2.25833	-190.864	2.23997	35.6732	-172.021	11.0189	1.03704	-144.297	1.25288	-19.4789	-124.174	-20.3409	-10.146	-167.498	-37.5532	-36.4328	-143.533	-20.4458	-46.3278	-147.589	-4.50253	-12.4314	-148.097	-58.2479	-30.614	-126.242	-37.3341	-43.4967	-133.393	-15.5012	-10.3887	-135.511	-63.5763	-13.8821	-114.494	-44.9186	-28.7336	-120.597	-25.0171	0.945986	-124.973	-66.9545	8.20641	-103.004	-50.0975	-11.5095	-109.056	-26.372	11.8466	-160.199	-63.1409	38.4184	-177	-55.4173	69.3687	-192.734	-38.8195	37.8812	
272	2.26667	-191.166	5.37813	38.3117	-172.833	11.6491	6.61425	-143.522	-3.53647	-19.3887	-125.739	-21.0348	-12.9991	-170.347	-38.7834	-32.2944	-148.666	-23.0743	-48.1211	-146.414	-6.39043	-15.6458	-153.945	-58.1674	-31.3948	-127.314	-37.0188	-40.058	-136.773	-16.634	-11.1464	-139.626	-65.1641	-19.2099	-120.31	-49.1035	-32.2817	-126.327	-26.4829	-1.94223	-129.814	-70.6184	8.5139	-109.038	-55.7003	-14.8833	-107.808	-32.2163	5.52753	-165.2	-63.2403	41.7864	-180.429	-55.0166	70.3673	-196.106	-36.4319	40.4173	
273	2.275	-189.855	5.11421	37.2241	-171.069	13.4172	7.87352	-145.298	-3.20975	-16.0717	-127.91	-23.9245	-12.3915	-178.815	-32.8995	-32.7994	-152.896	-19.7022	-49.2443	-150.989	-2.45774	-16.7785	-161.296	-54.9892	-30.9452	-132.731	-40.4632	-44.4186	-138.734	-16.475	-11.1859	-144.185	-68.0762	-20.9383	-125.712	-50.3512	-34.8006	-129.067	-28.8929	-1.02189	-136.358	-71.4198	5.46287	-113.237	-58.771	-18.1971	-112.335	-32.7672	-0.740591	-170.024	-63.127	39.9247	-181.318	-55.506	69.6896	-195.957	-37.255	40.8284	
274	2.28333	-186.213	5.32686	40.6474	-169.516	15.772	6.73217	-145.417	-0.588555	-20.919	-128.891	-27.0366	-15.5953	-178.596	-32.8822	-32.5852	-154.741	-20.5027	-48.2247	-150.98	-4.68786	-14.0533	-167.391	-52.9219	-33.4568	-140.028	-34.1101	-47.045	-140.593	-16.6989	-11.6287	-149.806	-67.1615	-22.2278	-128.083	-51.4193	-35.4116	-129.821	-31.5899	-3.75104	-139.884	-75.3446	0.332428	-119.105	-61.5193	-21.3506	-113.288	-34.6668	-0.869916	-173.602	-60.1807	35.4473	-182.388	-55.6858	64.4957	-199.856	-34.4339	42.9867	
275	2.29167	-187.165	8.46573	39.751	-168.792	15.9891	7.13543	-147.081	-1.12889	-20.9082	-132.879	-32.1958	-14.2728	-184.762	-28.161	-34.3646	-156.134	-14.7091	-47.2046	-152.423	-2.97575	-13.746	-170.624	-50.4246	-36.0059	-143.786	-31.4697	-46.5681	-143.34	-21.854	-8.11521	-158.664	-63.4869	-23.2092	-132.956	-50.2423	-37.2909	-135.281	-31.499	-2.94398	-148.181	-72.7183	-1.72378	-128.191	-61.0198	-25.3708	-119.021	-38.1631	-1.89398	-174.47	-62.715	34.9492	-183.918	-59.3699	64.7631	-201.014	-32.0859	39.7278	
276	2.3	-184.615	6.83242	44.2808	-168.763	15.6817	8.44162	-149.766	0.276492	-16.8485	-137.785	-28.9024	-15.4432	-186.125	-25.0238	-36.5601	-161.008	-16.5754	-49.1086	-153.533	-3.20128	-15.8112	-176.577	-48.2585	-36.8412	-148.205	-32.6738	-47.5995	-147.431	-18.6335	-8.22716	-161.739	-64.4268	-24.5833	-138.342	-51.6993	-39.3103	-136.699	-31.8023	-7.9384	-153.513	-74.7553	-6.54687	-132.945	-64.3806	-28.4536	-121.278	-40.2949	-5.43536	-180.875	-61.203	33.9297	-185.815	-57.0407	64.169	-204.157	-30.2759	42.1865	
277	2.30833	-183.052	10.8329	47.3256	-167.934	15.6319	12.473	-150.818	1.0055	-16.5689	-140.398	-26.7563	-17.978	-188.922	-20.9221	-34.7995	-162.685	-10.116	-45.8953	-157.449	1.67402	-11.2656	-182.812	-45.0134	-33.6798	-154.826	-33.441	-49.715	-150.213	-18.4346	-8.47732	-171.229	-59.1455	-27.197	-145.223	-51.085	-41.929	-142.069	-30.2249	-8.91075	-160.389	-72.5022	-5.88538	-143.609	-58.7397	-30.5798	-124.242	-40.7808	-10.0998	-181.971	-61.1017	34.2956	-188.02	-55.0552	66.0474	-202.12	-28.905	41.573	
278	2.31667	-180.756	13.8445	50.416	-166.55	22.4034	12.2921	-153.339	6.16531	-18.7151	-144.843	-25.6571	-22.9406	-194.385	-11.9715	-33.082	-166.368	-5.17854	-44.534	-156.943	4.74082	-11.4023	-191.398	-34.7483	-34.5906	-160.482	-26.6323	-50.4471	-152.023	-16.5254	-12.0007	-177.821	-55.6381	-26.8981	-152.49	-45.3498	-43.1039	-142.402	-30.389	-12.1814	-167.725	-71.4502	-6.55349	-151.877	-55.2999	-33.4573	-134.113	-40.1281	-15.059	-185.942	-57.8561	33.4454	-192.486	-52.9077	66.8026	-204.507	-21.8207	43.2486	
279	2.325	-176.97	16.2486	51.6511	-162.654	21.432	18.5598	-152.366	11.1164	-18.9868	-148.135	-19.8236	-25.3565	-196.503	-3.44705	-30.639	-170.536	3.94334	-44.6561	-157.254	7.6063	-9.29742	-195.614	-26.6913	-35.9856	-166.106	-19.5491	-50.4422	-153.381	-12.8746	-12.8429	-185.669	-46.4948	-30.3697	-159.121	-37.5235	-45.1881	-147.981	-26.5463	-12.8435	-176.725	-64.0231	-11.029	-161.629	-55.15	-37.4052	-136.895	-42.4884	-18.0218	-194.326	-48.0672	29.4495	-195.7	-53.1754	63.8481	-206.133	-17.5593	49.1901	
280	2.33333	-169.985	17.0348	56.6781	-156.594	24.7533	20.121	-152.11	11.1813	-13.034	-150.51	-12.7494	-27.2066	-196.886	7.74117	-24.1344	-172.002	7.01606	-43.4663	-153.475	10.2155	-12.5007	-200.426	-10.3472	-32.3604	-173.762	-9.95669	-51.9454	-154.409	-5.43861	-14.337	-193.174	-34.8942	-27.8367	-165.55	-26.0767	-45.8455	-150.309	-26.0923	-12.7626	-186.427	-54.783	-13.6471	-166.809	-45.4534	-39.308	-143.627	-39.0884	-17.378	-199.626	-43.4181	30.062	-198.993	-50.143	65.6025	-203.651	-12.9282	51.5245	
281	2.34167	-162.887	12.3932	58.0108	-148.728	24.6016	22.415	-145.363	14.5158	-9.44314	-153.92	-11.0811	-22.3428	-192.452	20.1362	-18.6088	-165.983	19.9016	-39.1453	-150.067	14.2743	-7.10582	-200.943	4.42541	-31.1314	-170.876	1.61709	-47.6432	-155.472	-6.22296	-13.9435	-197.433	-18.0513	-30.7978	-172.381	-18.9616	-46.9251	-155.532	-18.6364	-11.9712	-193.984	-45.7762	-15.3057	-171.814	-32.1875	-38.4238	-149.957	-37.6981	-13.3895	-202.943	-33.4156	28.8976	-203.44	-42.7546	62.917	-200.217	-5.16883	52.8259	
282	2.35	-156.589	14.4993	59.9935	-141.499	21.2267	29.7197	-140.58	17.3427	-7.14805	-156.686	-8.65548	-24.7228	-186.679	33.3924	-16.0019	-162.905	29.4221	-33.9739	-146.95	15.875	-1.89863	-198.49	14.4687	-27.7225	-169.793	13.4304	-45.0815	-154.271	-1.43758	-13.1352	-199.906	-3.39205	-28.2179	-174.136	-5.59419	-43.9745	-159.543	-19.7046	-10.8972	-199.573	-27.9916	-18.141	-173.629	-25.255	-39.1196	-156.013	-33.4676	-12.4359	-208.676	-22.8208	30.6908	-207.294	-38.8488	61.4156	-198.406	4.40305	56.9101	
283	2.35833	-152.67	7.24096	64.3279	-138.112	18.2415	29.4285	-140.346	13.4564	-5.04496	-156.8	-5.21998	-22.2241	-179.849	39.8335	-6.4444	-159.022	34.3401	-29.5219	-143.676	14.7326	0.0756497	-193.15	26.9251	-21.3422	-169.031	18.0982	-41.5451	-153.29	-0.640006	-9.6424	-201.168	3.64408	-24.3623	-176.057	-0.583187	-42.2922	-162.911	-14.2984	-10.8582	-202.317	-19.2598	-17.7867	-178.682	-18.9487	-38.4109	-159.068	-30.4109	-14.2246	-211.062	-19.9238	33.14	-207.866	-29.0099	64.7662	-194.209	8.12026	60.4488	
284	2.36667	-149.598	1.85256	66.3688	-131.814	13.5485	34.0976	-137.099	12.204	-2.86053	-159.825	-5.73703	-15.7075	-175.055	42.0874	-0.550392	-152.659	31.5759	-25.1691	-140.169	14.8523	3.30764	-189.592	32.0742	-14.4582	-165.918	24.5204	-38.3542	-151.658	2.21448	-6.30609	-198.073	13.81	-20.3792	-176.9	8.10406	-39.8334	-163.487	-8.75921	-9.31492	-202.682	-7.79062	-14.9595	-181.645	-9.59175	-36.1604	-165.006	-30.6711	-10.5167	-208.346	-10.1735	34.5804	-213.425	-29.4732	66.2261	-189.307	9.39272	64.7627	
